{"title":"Olympus.Has.Fallen.2013 BRRip XViD juggs","uid":8619111,"size":752551439,"categoryP":"video","categoryS":"movies","magnet":"?xt=urn:btih:7964fb4789af13b2445ed7d88a29e4cbedfeb74f&amp;dn=Olympus.Has.Fallen.2013+BRRip+XViD+juggs&amp;tr=udp%3A%2F%2Ftracker.openbittorrent.com%3A80&amp;tr=udp%3A%2F%2Fopen.demonii.com%3A1337&amp;tr=udp%3A%2F%2Ftracker.coppersurfer.tk%3A6969&amp;tr=udp%3A%2F%2Fexodus.desync.com%3A6969","seeders":9,"leechers":10,"uploader":"juggs99","files":3,"time":1372327429,"description":"Source : SPARKS(Thanks)\n &lt;a href=&quot;\nhttp://www.imdb.com/title/tt2302755/&quot; rel=&quot;nofollow&quot; target=&quot;_NEW&quot;&gt;\nhttp://www.imdb.com/title/tt2302755/&lt;/a&gt;\n\nFormat : AVI\nFormat/Info : Audio Video Interleave\nFile size : 697 MiB\nDuration : 1h 59mn\nOverall bit rate : 818 Kbps\nWriting library : VirtualDub build 32842/release\n\nVideo\nID : 0\nFormat : MPEG-4 Visual\nFormat profile : Advanced Simple@L5\nFormat settings, BVOP : 2\nFormat settings, QPel : No\nFormat settings, GMC : No warppoints\nFormat settings, Matrix : Default (H.263)\nMuxing mode : Packed bitstream\nCodec ID : XVID\nCodec ID/Hint : XviD\nDuration : 1h 59mn\nBit rate : 697 Kbps\nWidth : 640 pixels\nHeight : 272 pixels\nDisplay aspect ratio : 2.35:1\nFrame rate : 24.000 fps\nColor space : YUV\nChroma subsampling : 4:2:0\nBit depth : 8 bits\nScan type : Progressive\nCompression mode : Lossy\nBits/(Pixel*Frame) : 0.167\nStream size : 594 MiB (85%)\nWriting library : XviD 1.2.1 (UTC 2008-12-04)\n\nAudio\nID : 1\nFormat : MPEG Audio\nFormat version : Version 1\nFormat profile : Layer 3\nMode : Joint stereo\nMode extension : MS Stereo\nCodec ID : 55\nCodec ID/Hint : MP3\nDuration : 1h 59mn\nBit rate mode : Constant\nBit rate : 112 Kbps\nChannel(s) : 2 channels\nSampling rate : 44.1 KHz\nCompression mode : Lossy\nStream size : 95.4 MiB (14%)\nAlignment : Split accross interleaves\nInterleave, duration : 42 ms (1.00 video frame)\nInterleave, preload duration : 500 ms\nWriting library : LAME3.98\n &lt;a href=&quot;\nhttp://img534.imageshack.us/img534/2946/0bp4.png&quot; rel=&quot;nofollow&quot; target=&quot;_NEW&quot;&gt;\nhttp://img534.imageshack.us/img534/2946/0bp4.png&lt;/a&gt; &lt;a href=&quot;\nhttp://img834.imageshack.us/img834/3038/inyg.png&quot; rel=&quot;nofollow&quot; target=&quot;_NEW&quot;&gt;\nhttp://img834.imageshack.us/img834/3038/inyg.png&lt;/a&gt; &lt;a href=&quot;\nhttp://img18.imageshack.us/img18/8438/s3oa.png&quot; rel=&quot;nofollow&quot; target=&quot;_NEW&quot;&gt;\nhttp://img18.imageshack.us/img18/8438/s3oa.png&lt;/a&gt;","torrent":{"xt":"urn:btih:7964fb4789af13b2445ed7d88a29e4cbedfeb74f","amp;dn":"Olympus.Has.Fallen.2013+BRRip+XViD+juggs","amp;tr":["udp%3A%2F%2Ftracker.openbittorrent.com%3A80","udp%3A%2F%2Fopen.demonii.com%3A1337","udp%3A%2F%2Ftracker.coppersurfer.tk%3A6969","udp%3A%2F%2Fexodus.desync.com%3A6969"],"infoHash":"7964fb4789af13b2445ed7d88a29e4cbedfeb74f","infoHashBuffer":{"type":"Buffer","data":[121,100,251,71,137,175,19,178,68,94,215,216,138,41,228,203,237,254,183,79]},"announce":[],"urlList":[]}}